<?xml version="1.0" encoding="utf-8"?>
<!-- Generator: Adobe Illustrator 27.8.0, SVG Export Plug-In . SVG Version: 6.00 Build 0)  -->
<svg version="1.1" id="Layer_1" xmlns="http://www.w3.org/2000/svg" xmlns:xlink="http://www.w3.org/1999/xlink" x="0px" y="0px"
	 viewBox="0 0 800 800" style="enable-background:new 0 0 800 800;" xml:space="preserve">
<style type="text/css">
	.st0{fill:#000;}
	.st1{fill:#fff056;}
</style>
<g>
	<rect class="st0" width="800" height="800"/>
	<g>
		<path class="st1" d="M254.1,145.5c0,3.1,0.6,24.2,0.9,34.1c20.5-13,38.9-26,45.7-31c0.3-8.4,0.4-17.7,0.3-27.7
			c-13.4-9.3-74.6-45.2-94.9-57l1.6,12.7C207.8,76.5,254.1,141.4,254.1,145.5z"/>
		<path class="st1" d="M708.4,602.3c-3.5-7.4-12.4-19.6-24.7-23.7c-9.6-3.2-31.4,0.7-40.1,2s-42.5,17.9-42.5,17.9
			s-32,18.3-34.1,20.4s-22.2,18.4-24.3,23.6s-12.8,19.7-12.8,19.7s-0.5-8.2-1-15.4c-1-14.4,17.5-39.1,17.5-39.1s30.7-19.8,35-22.7
			c6.2-4.1,18-10.6,35.3-19.4c5-3,8.5-4.9,9.2-5.1c1.2-0.4,19.6-15.4,19.6-15.4s28.7-34.7,32.8-47.6c4.1-12.9,9.9-33.5,10.7-39.2
			c0.7-5,3.9-49.1,3.9-49.1s1.9-28-25.7-87.5C656.1,297.6,555,204.2,555,204.2l-86.2-47.9c-0.5,1.9-2.2,5.1-6.5,10.8
			c-9.3,12.4,0,68,0,70s-22.7-3.1-15.4-4.1s-4.1-57.7-5.1-64.9c-1-7.2-37.1-45.3-63.8-62.8c-20.7-13.5-51.7-29.4-64.9-36
			c0.2,10.8,0.8,61.1-1,72.1c-2.1,12.4-5.1,46.3-7.2,54.6c-2.1,8.2-11.3,15.4-11.3,15.4s5.6-20.9,7.3-58.5c-3.1,5.9-3.6,13.7-8.1,15
			c-7.2,2.1-49.6,27.1-56.8,36.3c-7.2,9.3-66.9,93.7-64.9,108.1c2.1,14.4,3.1,36,3.1,36l-26.6,94.4c0,0,13.4-1,21.6-3.1
			c6.2,2.1,5.1,9.3,5.1,9.3l-8.4,13.7c0,0,16.5,25.7,27.8,28.8c11.3,3.1,16.5,4.1,16.5,4.1s1.4,10.4,13.4,25.7
			c7.2,9.3,9.5,12,26.8,14.4c24.8,3.4,68.9-4.7,96.8-14.4c47.4-16.5,119.4-87.5,119.4-87.5l0.6-1.2l-87.5-2.9l-30.7-16.4
			c-22.4,1-56.3,2.8-67.4,3.8c-2.1,7.5-9,13.1-17.1,13.1c-9.8,0-17.7-7.9-17.7-17.7c0-9.8,7.9-17.7,17.7-17.7
			c7.7,0,14.3,5,16.8,11.9c15.2-1.4,55.2-3.3,68.8-3.9l1.4-0.1l31.1,16.6l84.2,2.8l15-37.2c-19-1.9-47.2-4.7-58.9-6
			c-2.4,7-9,12-16.8,12c-9.8,0-17.7-7.9-17.7-17.7s7.9-17.7,17.7-17.7c8.1,0,14.9,5.5,17.1,13c11.6,1.2,25.1,2.6,37.5,3.9
			l-31.7-36.4l-55.8-5.4c-1.2,8.5-8.6,15.1-17.5,15.1c-9.8,0-17.7-7.9-17.7-17.7c0-9.8,7.9-17.7,17.7-17.7c6.9,0,12.9,3.9,15.8,9.7
			l62.7,6l41.8,48c13.2,1.3,23.1,2.3,24.6,2.3c5.1,0,137.8,10.4,152.4,11.4l-5.1,8.2c-57.2-4.1-143.2-9.2-147.2-9.2
			c-0.6,0-2.3-0.1-4.5-0.3l-7.5,14.9l-9.5,30.6c0,0-20.8,44-70.8,75.9l-42.8,39.5l-26.7,2.3l-17,1.1l0,0l-0.5,0.3
			c0,0,20.6,11.3,20.6,29.9s-1,30.9-15.4,27.8c-14.4-3.1-57.7-28.8-73.1-29.9s-49.4,10.3-58.7,10.3c-7.2,0-30.3,4.9-48.5-0.4
			c0,0-22-13.5-25.6-20.2c-1.5-2.9-4.9-11.7-6.2-22.7c-1.6-14.2-1-30.9-1-30.9s-23.6,32.4-17.5,57.7c3.5,14.5,12.7,25.9,24.8,34
			h-0.1l0.4,0.2c3.1,2.1,6.5,3.9,10,5.6l17.4,9.7l42.2,10.3c0,0,61.3-11.9,64.9-11.3c6.7,1.2,40.3,26.5,53.5,32.9
			c8.1,3.9,40.2,5.1,40.2,5.1s25.7-11.3,27.8-29.9c2.9-25.6,13.4-66.9,13.4-66.9l49.4-46.3l10.3-5.1l-16.4,20.5l-25.9,40.1
			l-4.1,24.7l-11.3,68c0,0-30.9,15.4-39.1,17.5c-8.2,2.1-29.9,2.1-35,0c-5.1-2.1-26.8-14.4-26.8-14.4c-14.7-9.3-38.1-25.7-44.3-26.8
			c-6.2-1-29.9,0-38.1,2.1c-8.2,2.1-32,13.7-39.5,16.8c-0.2,0.3-0.3,0.6-0.5,0.9c-5.1,10.9-13.4,31.9-8.2,45.3
			c5.1,13.4,8.2,19.6,8.2,19.6s0-29.9,6.2-36c6.2-6.2,19.6-20.6,37.1-18.5s25.7,5.1,31.9,12.4c6.2,7.2,35,42.2,48.4,45.3
			c13.4,3.1,54.6,9.3,69,3.1c14.4-6.2,88.5-35,92.7-50.5c0.2-0.6-5.1-39.6-5.1-42.2c0-10.3,6.1-39.3,6.1-39.3s25.7-36,30.9-39.1
			s34-18.5,44.3-25.7c7.5-5.3,46.7-50.8,55.6-66.9l4.2-13.2c0.4,7.2-0.1,14.2-2.2,26.6C585.5,493.3,568,519,568,519l-34,36
			l-42.2,25.7c0,0-14.4,17.5-16.5,24.7c-2.1,7.2-6.2,35-6.2,35l7.2,28.8l7.2,16.5l7.7,13.7c4,1.4,13.3,8.1,25.2,10
			c17,2.6,42.2-5.1,42.2-5.1s24.7-19.6,34-28.8c5.3-5.3,27.2-31,32.3-36.1c3.3-3.3,26.2-14.4,33.6-13.3c13.4,2.1,22,13.3,16.9,25.6
			c-0.4,1.1-2.6,5-7.2,7.2c-5.5,2.5-13.4,3.1-13.4,3.1l8.2,6.2c0,0,13.4-2.1,20.6-5.1c19.5-8.3,25.7-21.6,25.7-21.6
			S715.6,617.8,708.4,602.3z M323.3,315.1c-2.3,16.9-27.7,39.1-31.1,42.5c-3.7,3.7-29.8,11-43.6,14.7c-4.6,1.5-6.7,2.6-10.7,4.3
			c-7.8,3.6-27.8,17.8-27.8,17.8s15.6-37.1,15.6-48.5c0-11.4,7.1-58.5,7.1-58.5s20.1,3.2,38.6,7.3c22.3,4.9,44.5,10.4,51.3,12.7
			C323.3,307.9,324.3,310.9,323.3,315.1z"/>
	</g>
	<path class="st1" d="M272.1,309.4c-4.4,7.9-2.9,38.6-2.9,38.6s0,0-6.3-12.8C256.6,322.5,272.1,309.4,272.1,309.4z"/>
</g>
</svg>
